<svg xmlns="http://www.w3.org/2000/svg" xmlns:xlink="http://www.w3.org/1999/xlink"><defs><style>
    .sprite-symbol-usage {display: none;}
    .sprite-symbol-usage:target {display: inline;}
  </style><symbol viewBox="0 0 256 256" id="audio"><path d="M97.53 132.3a4 4 0 0 0-4.36.87L70.34 156H48a4 4 0 0 0-4 4v40a4 4 0 0 0 4 4h22.34l22.83 22.83A4 4 0 0 0 100 224v-88a4 4 0 0 0-2.47-3.7m-5.53 82-17.17-17.13A4 4 0 0 0 72 196H52v-32h20a4 4 0 0 0 2.83-1.17L92 145.66Zm56-34.3a36.52 36.52 0 0 1-18 31.45 4 4 0 0 1-4-6.9 28.5 28.5 0 0 0 0-49.1 4 4 0 0 1 4-6.9A36.52 36.52 0 0 1 148 180m62.83-94.83-56-56A4 4 0 0 0 152 28H56a12 12 0 0 0-12 12v80a4 4 0 0 0 8 0V40a4 4 0 0 1 4-4h92v52a4 4 0 0 0 4 4h52v124a4 4 0 0 1-4 4h-32a4 4 0 0 0 0 8h32a12 12 0 0 0 12-12V88a4 4 0 0 0-1.17-2.83M156 41.65 198.34 84H156Z" /></symbol><symbol viewBox="0 0 256 256" id="broken"><path fill="none" d="M0 0h256v256H0z" /><path fill="none" stroke="currentColor" stroke-linecap="round" stroke-linejoin="round" stroke-width="8" d="M104 208H40a8 8 0 0 1-8-8V56a8 8 0 0 1 8-8h176a8 8 0 0 1 8 8v32l-48 16-16 40-40 16ZM137.73 208l7.94-23.8 39-15.58 15.58-39 23.8-7.94V200a8 8 0 0 1-8 8Z" /><path fill="none" stroke="currentColor" stroke-linecap="round" stroke-linejoin="round" stroke-width="8" d="m32 168.69 54.34-54.35a8 8 0 0 1 11.32 0l39 39" /></symbol><symbol viewBox="0 0 256 256" id="csv"><path d="M44 180c0 13.23 9 24 20 24a18.15 18.15 0 0 0 13.11-5.9 4 4 0 1 1 5.78 5.54A26.1 26.1 0 0 1 64 212c-15.44 0-28-14.36-28-32s12.56-32 28-32a26.1 26.1 0 0 1 18.89 8.36 4 4 0 1 1-5.78 5.54A18.15 18.15 0 0 0 64 156c-11 0-20 10.77-20 24m82.49-4.85c-10.53-3-15.08-4.91-14.42-10.08a8.51 8.51 0 0 1 3.75-6.49c6.25-4.23 18.77-2.24 23.06-1.11a4 4 0 0 0 2-7.74 61 61 0 0 0-10.47-1.61c-8.12-.54-14.54.75-19.1 3.82a16.66 16.66 0 0 0-7.22 12.13c-1.58 12.49 10.46 16 20.14 18.77 11.26 3.25 16.47 5.49 15.64 11.94a8.94 8.94 0 0 1-3.91 6.75c-6.27 4.17-18.61 2.05-22.83.88a4 4 0 1 0-2.15 7.7 58 58 0 0 0 14.21 1.89c5.18 0 10.83-.86 15.22-3.77a17 17 0 0 0 7.43-12.41c1.8-13.98-11.58-17.82-21.35-20.67m82.85-26.92a4 4 0 0 0-5.11 2.42L188 196.11l-16.23-45.46a4 4 0 1 0-7.54 2.7l20 56a4 4 0 0 0 7.54 0l20-56a4 4 0 0 0-2.43-5.12M212 88v24a4 4 0 0 1-8 0V92h-52a4 4 0 0 1-4-4V36H56a4 4 0 0 0-4 4v72a4 4 0 0 1-8 0V40a12 12 0 0 1 12-12h96a4 4 0 0 1 2.83 1.17l56 56A4 4 0 0 1 212 88m-13.66-4L156 41.65V84Z" /></symbol><symbol viewBox="0 0 256 256" id="default"><path d="m210.83 85.17-56-56A4 4 0 0 0 152 28H56a12 12 0 0 0-12 12v176a12 12 0 0 0 12 12h144a12 12 0 0 0 12-12V88a4 4 0 0 0-1.17-2.83M156 41.65 198.34 84H156ZM200 220h-92v-24h12a4 4 0 0 0 0-8h-12v-24h12a4 4 0 0 0 0-8h-12v-24h12a4 4 0 0 0 0-8h-12v-12a4 4 0 0 0-8 0v12H88a4 4 0 0 0 0 8h12v24H88a4 4 0 0 0 0 8h12v24H88a4 4 0 0 0 0 8h12v24H56a4 4 0 0 1-4-4V40a4 4 0 0 1 4-4h92v52a4 4 0 0 0 4 4h52v124a4 4 0 0 1-4 4" /></symbol><symbol viewBox="0 0 256 256" id="doc"><path d="M52 148H36a4 4 0 0 0-4 4v56a4 4 0 0 0 4 4h16a32 32 0 0 0 0-64m0 56H40v-48h12a24 24 0 0 1 0 48m166.77-6a4 4 0 0 1 .12 5.66A26.1 26.1 0 0 1 200 212c-15.44 0-28-14.36-28-32s12.56-32 28-32a26.1 26.1 0 0 1 18.89 8.36 4 4 0 1 1-5.78 5.54A18.15 18.15 0 0 0 200 156c-11 0-20 10.77-20 24s9 24 20 24a18.15 18.15 0 0 0 13.11-5.9 4 4 0 0 1 5.66-.1M128 148c-15.44 0-28 14.36-28 32s12.56 32 28 32 28-14.36 28-32-12.56-32-28-32m0 56c-11 0-20-10.77-20-24s9-24 20-24 20 10.77 20 24-9 24-20 24m-80-88a4 4 0 0 0 4-4V40a4 4 0 0 1 4-4h92v52a4 4 0 0 0 4 4h52v20a4 4 0 0 0 8 0V88a4 4 0 0 0-1.17-2.83l-56-56A4 4 0 0 0 152 28H56a12 12 0 0 0-12 12v72a4 4 0 0 0 4 4m108-74.35L198.34 84H156Z" /></symbol><symbol viewBox="0 0 256 256" id="image"><path d="M107.33 149.78a4 4 0 0 0-6.66 0l-24.25 36.37-13.06-20.31a4 4 0 0 0-6.72 0l-36 56A4 4 0 0 0 24 228h128a4 4 0 0 0 3.33-6.22Zm-76 70.22L60 175.4l13 20.22a4 4 0 0 0 3.33 1.83 3.93 3.93 0 0 0 3.36-1.78L104 159.21 144.53 220Zm179.5-134.83-56-56A4 4 0 0 0 152 28H56a12 12 0 0 0-12 12v88a4 4 0 0 0 8 0V40a4 4 0 0 1 4-4h92v52a4 4 0 0 0 4 4h52v124a4 4 0 0 1-4 4h-8a4 4 0 0 0 0 8h8a12 12 0 0 0 12-12V88a4 4 0 0 0-1.17-2.83M156 41.65 198.34 84H156Z" /></symbol><symbol viewBox="0 0 256 256" id="svg"><path d="m210.83 85.17-56-56A4 4 0 0 0 152 28H56a12 12 0 0 0-12 12v72a4 4 0 1 0 8 0V40a4 4 0 0 1 4-4h92v52a4 4 0 0 0 4 4h52v20a4 4 0 0 0 8 0V88a4 4 0 0 0-1.17-2.83M156 41.65 198.34 84H156ZM83.85 195.8a17 17 0 0 1-7.43 12.41C72 211.12 66.38 212 61.2 212a58 58 0 0 1-14.2-1.89 4 4 0 1 1 2.15-7.7c4.22 1.17 16.56 3.29 22.83-.88a8.94 8.94 0 0 0 3.91-6.75c.83-6.45-4.38-8.69-15.64-11.94-9.68-2.8-21.72-6.28-20.14-18.77a16.66 16.66 0 0 1 7.22-12.13c4.56-3.07 11-4.36 19.1-3.82a61 61 0 0 1 10.47 1.61 4 4 0 0 1-2 7.74c-4.29-1.13-16.81-3.12-23.06 1.11a8.51 8.51 0 0 0-3.75 6.49c-.66 5.17 3.89 7 14.42 10.08 9.76 2.85 23.14 6.69 21.34 20.65m63.92-42.45-20 56a4 4 0 0 1-7.53 0l-20-56a4 4 0 1 1 7.53-2.7L124 196.11l16.23-45.46a4 4 0 1 1 7.53 2.7ZM212 184v16.87a4 4 0 0 1-1.11 2.77A26.1 26.1 0 0 1 192 212c-15.44 0-28-14.36-28-32s12.56-32 28-32a25.4 25.4 0 0 1 14.24 4.43 4 4 0 1 1-4.48 6.63A17.43 17.43 0 0 0 192 156c-11 0-20 10.77-20 24s9 24 20 24a17.87 17.87 0 0 0 12-4.82V188h-4a4 4 0 0 1 0-8h8a4 4 0 0 1 4 4" /></symbol><symbol viewBox="0 0 256 256" id="txt"><path d="M204 112a4 4 0 0 0 8 0V88a4 4 0 0 0-1.17-2.83l-56-56A4 4 0 0 0 152 28H56a12 12 0 0 0-12 12v72a4 4 0 0 0 8 0V40a4 4 0 0 1 4-4h92v52a4 4 0 0 0 4 4h52Zm-48-70.35L198.34 84H156Zm-4.75 112.67L132.92 180l18.33 25.67a4 4 0 1 1-6.5 4.65L128 186.88l-16.75 23.44a4 4 0 1 1-6.5-4.65L123.08 180l-18.33-25.68a4 4 0 1 1 6.5-4.65L128 173.12l16.75-23.45a4 4 0 1 1 6.5 4.65M88 152a4 4 0 0 1-4 4H68v52a4 4 0 0 1-8 0v-52H44a4 4 0 0 1 0-8h40a4 4 0 0 1 4 4m128 0a4 4 0 0 1-4 4h-16v52a4 4 0 0 1-8 0v-52h-16a4 4 0 0 1 0-8h40a4 4 0 0 1 4 4" /></symbol><symbol viewBox="0 0 256 256" id="video"><path d="m210.83 85.17-56-56A4 4 0 0 0 152 28H56a12 12 0 0 0-12 12v72a4 4 0 0 0 8 0V40a4 4 0 0 1 4-4h92v52a4 4 0 0 0 4 4h52v124a4 4 0 0 1-4 4h-8a4 4 0 0 0 0 8h8a12 12 0 0 0 12-12V88a4 4 0 0 0-1.17-2.83M156 41.65 198.34 84H156Zm-2.06 106.85a4 4 0 0 0-4.06.11L124 164.78V160a12 12 0 0 0-12-12H48a12 12 0 0 0-12 12v48a12 12 0 0 0 12 12h64a12 12 0 0 0 12-12v-4.78l25.88 16.17a4 4 0 0 0 2.12.61 4.06 4.06 0 0 0 1.94-.5A4 4 0 0 0 156 216v-64a4 4 0 0 0-2.06-3.5M116 208a4 4 0 0 1-4 4H48a4 4 0 0 1-4-4v-48a4 4 0 0 1 4-4h64a4 4 0 0 1 4 4Zm32 .78-24-15v-19.56l24-15Z" /></symbol><symbol viewBox="0 0 256 256" id="xls"><path d="M152 208a4 4 0 0 1-4 4h-28a4 4 0 0 1-4-4v-56a4 4 0 0 1 8 0v52h24a4 4 0 0 1 4 4m-61.68-59.25a4 4 0 0 0-5.58.92L68 173.12l-16.75-23.45a4 4 0 0 0-6.5 4.66L63.08 180l-18.33 25.67a4 4 0 0 0 .93 5.58A3.9 3.9 0 0 0 48 212a4 4 0 0 0 3.25-1.67L68 186.88l16.74 23.45A4 4 0 0 0 88 212a3.9 3.9 0 0 0 2.32-.75 4 4 0 0 0 .93-5.58L72.91 180l18.34-25.67a4 4 0 0 0-.93-5.58m100.17 26.4c-10.53-3-15.08-4.91-14.43-10.08a8.57 8.57 0 0 1 3.75-6.49c6.26-4.23 18.77-2.24 23.07-1.11a4 4 0 0 0 2-7.74 61.3 61.3 0 0 0-10.48-1.61c-8.11-.54-14.54.75-19.09 3.82a16.63 16.63 0 0 0-7.22 12.13c-1.59 12.49 10.46 16 20.14 18.77 11.25 3.25 16.46 5.49 15.63 11.94a8.93 8.93 0 0 1-3.9 6.75c-6.28 4.17-18.61 2.05-22.83.88a4 4 0 1 0-2.15 7.7 57.7 57.7 0 0 0 14.21 1.89c5.17 0 10.83-.86 15.22-3.77a17 17 0 0 0 7.43-12.41c1.79-13.98-11.58-17.82-21.35-20.67M204 92h-52a4 4 0 0 1-4-4V36H56a4 4 0 0 0-4 4v72a4 4 0 0 1-8 0V40a12 12 0 0 1 12-12h96a4 4 0 0 1 2.83 1.17l56 56A4 4 0 0 1 212 88v24a4 4 0 0 1-8 0Zm-5.65-8L156 41.65V84Z" /></symbol><symbol viewBox="0 0 256 256" id="zip"><path d="M184 148h-16a4 4 0 0 0-4 4v56a4 4 0 0 0 8 0v-12h12a24 24 0 0 0 0-48m0 40h-12v-32h12a16 16 0 0 1 0 32m-52-36v56a4 4 0 0 1-8 0v-56a4 4 0 0 1 8 0m-40.53 2-28.58 50H88a4 4 0 0 1 0 8H56a4 4 0 0 1-3.47-6l28.58-50H56a4 4 0 0 1 0-8h32a4 4 0 0 1 3.47 6m119.36-68.83-56-56A4 4 0 0 0 152 28H56a12 12 0 0 0-12 12v72a4 4 0 0 0 8 0V40a4 4 0 0 1 4-4h92v52a4 4 0 0 0 4 4h52v20a4 4 0 0 0 8 0V88a4 4 0 0 0-1.17-2.83M156 84V41.65L198.34 84Z" /></symbol></defs><use id="audio-usage" xlink:href="#audio" class="sprite-symbol-usage" /><use id="broken-usage" xlink:href="#broken" class="sprite-symbol-usage" /><use id="csv-usage" xlink:href="#csv" class="sprite-symbol-usage" /><use id="default-usage" xlink:href="#default" class="sprite-symbol-usage" /><use id="doc-usage" xlink:href="#doc" class="sprite-symbol-usage" /><use id="image-usage" xlink:href="#image" class="sprite-symbol-usage" /><use id="svg-usage" xlink:href="#svg" class="sprite-symbol-usage" /><use id="txt-usage" xlink:href="#txt" class="sprite-symbol-usage" /><use id="video-usage" xlink:href="#video" class="sprite-symbol-usage" /><use id="xls-usage" xlink:href="#xls" class="sprite-symbol-usage" /><use id="zip-usage" xlink:href="#zip" class="sprite-symbol-usage" /></svg>