<svg xmlns="http://www.w3.org/2000/svg" xmlns:xlink="http://www.w3.org/1999/xlink"><defs><style>
    .sprite-symbol-usage {display: none;}
    .sprite-symbol-usage:target {display: inline;}
  </style><symbol fill="none" viewBox="0 0 32 32" id="01d"><defs><style>@-webkit-keyframes am-weather-sun{0%{-webkit-transform:rotate(0deg);-ms-transform:rotate(0deg);transform:rotate(0deg)}to{-webkit-transform:rotate(360deg);-ms-transform:rotate(360deg);transform:rotate(360deg)}}@keyframes am-weather-sun{0%{-webkit-transform:rotate(0deg);-ms-transform:rotate(0deg);transform:rotate(0deg)}to{-webkit-transform:rotate(360deg);-ms-transform:rotate(360deg);transform:rotate(360deg)}}@-webkit-keyframes am-weather-sun-shiny{0%,to{stroke-dasharray:3px 10px;stroke-dashoffset:0}50%{stroke-dasharray:.1px 10px;stroke-dashoffset:-1px}}@keyframes am-weather-sun-shiny{0%,to{stroke-dasharray:3px 10px;stroke-dashoffset:0}50%{stroke-dasharray:.1px 10px;stroke-dashoffset:-1px}}#01d .am-weather-sun-shiny line{-webkit-animation:am-weather-sun-shiny 2s linear 0s infinite;-moz-animation:am-weather-sun-shiny 2s linear 0s infinite;-o-animation:am-weather-sun-shiny 2s linear 0s infinite;animation:am-weather-sun-shiny 2s linear 0s infinite}</style></defs><g id="01d_sun"><g class="am-weather-sun-shiny" style="-webkit-animation:am-weather-sun 9s ease-in-out 0s infinite;-moz-animation:am-weather-sun 9s ease-in-out 0s infinite;-o-animation:am-weather-sun 9s ease-in-out 0s infinite;animation:am-weather-sun 9s ease-in-out 0s infinite"><path stroke="#FFC107" stroke-linecap="round" stroke-width="2" d="M16 25v3M9.636 22.364l-2.121 2.121M7 16H4M9.636 9.636 7.515 7.515M16 7V4M22.364 9.636l2.121-2.121M25 16h3M22.364 22.364l2.121 2.121" /></g><path fill="#FFC107" stroke="#FFC107" stroke-width="2" d="M16 22.2a6.2 6.2 0 1 0 0-12.4 6.2 6.2 0 0 0 0 12.4z" /></g></symbol><symbol fill="none" viewBox="0 0 32 32" id="01n"><defs><style>@keyframes am-weather-moon{0%,to{-webkit-transform:rotate(0deg);-moz-transform:rotate(0deg);-ms-transform:rotate(0deg);transform:rotate(0deg)}50%{-webkit-transform:rotate(15deg);-moz-transform:rotate(15deg);-ms-transform:rotate(15deg);transform:rotate(15deg)}}@keyframes am-weather-moon-star-1{0%{opacity:0}to{opacity:1}}@keyframes am-weather-moon-star-2{0%{opacity:0}to{opacity:1}}</style></defs><g id="01n_moon"><path fill="#FFC107" stroke-miterlimit="10" d="M3.3 1.5 4 2.7l1.2.6L4 4l-.7 1.2L2.7 4l-1.2-.7 1.2-.6z" style="-webkit-animation:am-weather-moon-star-1 5s linear 0s infinite;-moz-animation:am-weather-moon-star-1 5s linear 0s infinite;-o-animation:am-weather-moon-star-1 5s linear 0s infinite;animation:am-weather-moon-star-1 5s linear 0s infinite" /><path fill="#FFC107" stroke-miterlimit="10" d="M3.3 1.5 4 2.7l1.2.6L4 4l-.7 1.2L2.7 4l-1.2-.7 1.2-.6z" style="-webkit-animation:am-weather-moon-star-2 4s linear 0s infinite;-moz-animation:am-weather-moon-star-2 4s linear 0s infinite;-o-animation:am-weather-moon-star-2 4s linear 0s infinite;animation:am-weather-moon-star-2 4s linear 0s infinite" transform="translate(20 20)" /><path fill="#FFC107" stroke="#FFC107" stroke-linejoin="round" stroke-width="2" d="M17 19.5c0-3.5 2-6.6 5-8.3a10 10 0 0 0-5-1.2c-5.5 0-10 4.3-10 9.5S11.5 29 17 29a11 11 0 0 0 5-1.2c-3-1.7-5-4.8-5-8.3z" style="-webkit-transform-origin:12.5px 15.15px 0;-moz-transform-origin:12.5px 15.15px 0;-ms-transform-origin:12.5px 15.15px 0;transform-origin:12.5px 15.15px 0;-webkit-animation:am-weather-moon 6s linear 0s infinite;-moz-animation:am-weather-moon 6s linear 0s infinite;-o-animation:am-weather-moon 6s linear 0s infinite;animation:am-weather-moon 6s linear 0s infinite" /></g></symbol><symbol fill="none" viewBox="0 0 32 32" id="02d"><defs><style>@-webkit-keyframes am-weather-sun{0%{-webkit-transform:rotate(0deg);-ms-transform:rotate(0deg);transform:rotate(0deg)}to{-webkit-transform:rotate(360deg);-ms-transform:rotate(360deg);transform:rotate(360deg)}}@keyframes am-weather-sun{0%{-webkit-transform:rotate(0deg);-ms-transform:rotate(0deg);transform:rotate(0deg)}to{-webkit-transform:rotate(360deg);-ms-transform:rotate(360deg);transform:rotate(360deg)}}@-webkit-keyframes am-weather-sun-shiny{0%,to{stroke-dasharray:3px 10px;stroke-dashoffset:0}50%{stroke-dasharray:.1px 10px;stroke-dashoffset:-1px}}@keyframes am-weather-sun-shiny{0%,to{stroke-dasharray:3px 10px;stroke-dashoffset:0}50%{stroke-dasharray:.1px 10px;stroke-dashoffset:-1px}}@keyframes am-weather-cloud-2{0%,to{-webkit-transform:translate(0,0);-ms-transform:translate(0,0);transform:translate(0,0)}50%{-webkit-transform:translate(2px,0);-ms-transform:translate(2px,0);transform:translate(2px,0)}}@-webkit-keyframes am-weather-cloud-2{0%,to{-webkit-transform:translate(0,0);-ms-transform:translate(0,0);transform:translate(0,0)}50%{-webkit-transform:translate(2px,0);-ms-transform:translate(2px,0);transform:translate(2px,0)}}#02d .am-weather-sun-shiny line{-webkit-animation:am-weather-sun-shiny 2s linear 0s infinite;-moz-animation:am-weather-sun-shiny 2s linear 0s infinite;-o-animation:am-weather-sun-shiny 2s linear 0s infinite;animation:am-weather-sun-shiny 2s linear 0s infinite}</style></defs><g transform="translate(13 15)"><g class="am-weather-sun-shiny" style="-webkit-animation:am-weather-sun 9s ease-in-out 0s infinite;-moz-animation:am-weather-sun 9s ease-in-out 0s infinite;-o-animation:am-weather-sun 9s ease-in-out 0s infinite;animation:am-weather-sun 9s ease-in-out 0s infinite"><path stroke="#FFC107" stroke-linecap="round" stroke-width="2" d="M0 9v3M-6.364 6.364l-2.121 2.121M-9 0h-3M-6.364-6.364l-2.121-2.121M0-9v-3M6.364-6.364l2.121-2.121M9 0h3M6.364 6.364l2.121 2.121" /></g><circle r="5" fill="#FFC107" stroke="#FFC107" stroke-width="2" /></g><path fill="#DBDBDB" stroke="#fff" stroke-linejoin="round" stroke-width="1.5" d="M31 23.8c0-3.9-3-6.8-6-6.8-.9 0-1.2-.3-2 0-.3-2.9-3.5-5-6.5-5-3.2 0-6.3 2.6-6.3 5.7 0 .7.2 1.4.4 2l-.9-.1A5.7 5.7 0 0 0 9.6 31h14.7a7.4 7.4 0 0 0 6.7-7.2z" style="-webkit-animation:am-weather-cloud-2 3s ease-in-out 0s infinite;-moz-animation:am-weather-cloud-2 3s ease-in-out 0s infinite;-o-animation:am-weather-cloud-2 3s ease-in-out 0s infinite;animation:am-weather-cloud-2 3s ease-in-out 0s infinite" /></symbol><symbol fill="none" viewBox="0 0 32 32" id="02n"><defs><style>@keyframes am-weather-moon{0%,to{-webkit-transform:rotate(0deg);-moz-transform:rotate(0deg);-ms-transform:rotate(0deg);transform:rotate(0deg)}50%{-webkit-transform:rotate(15deg);-moz-transform:rotate(15deg);-ms-transform:rotate(15deg);transform:rotate(15deg)}}@keyframes am-weather-moon-star-1{0%{opacity:0}to{opacity:1}}@keyframes am-weather-moon-star-2{0%{opacity:0}to{opacity:1}}@keyframes am-weather-cloud-2{0%,to{-webkit-transform:translate(0,0);-ms-transform:translate(0,0);transform:translate(0,0)}50%{-webkit-transform:translate(2px,0);-ms-transform:translate(2px,0);transform:translate(2px,0)}}@-webkit-keyframes am-weather-cloud-2{0%,to{-webkit-transform:translate(0,0);-ms-transform:translate(0,0);transform:translate(0,0)}50%{-webkit-transform:translate(2px,0);-ms-transform:translate(2px,0);transform:translate(2px,0)}}</style></defs><path fill="#FFC107" stroke-miterlimit="10" d="M3.3 1.5 4 2.7l1.2.6L4 4l-.7 1.2L2.7 4l-1.2-.7 1.2-.6z" style="-webkit-animation:am-weather-moon-star-1 5s linear 0s infinite;-moz-animation:am-weather-moon-star-1 5s linear 0s infinite;-o-animation:am-weather-moon-star-1 5s linear 0s infinite;animation:am-weather-moon-star-1 5s linear 0s infinite" transform="translate(3 3)" /><path fill="#FFC107" stroke-miterlimit="10" d="M3.3 1.5 4 2.7l1.2.6L4 4l-.7 1.2L2.7 4l-1.2-.7 1.2-.6z" style="-webkit-animation:am-weather-moon-star-2 4s linear 0s infinite;-moz-animation:am-weather-moon-star-2 4s linear 0s infinite;-o-animation:am-weather-moon-star-2 4s linear 0s infinite;animation:am-weather-moon-star-2 4s linear 0s infinite" transform="translate(27 13)" /><path fill="#FFC107" stroke="#FFC107" stroke-linejoin="round" stroke-width="1.6" d="M23 11.7c0-3 1.7-5.7 4.2-7.2-1.3-.8-2.7-1-4.2-1a8.4 8.4 0 0 0-8.5 8.2c0 4.6 3.8 8.3 8.5 8.3a9 9 0 0 0 4.2-1 8.3 8.3 0 0 1-4.2-7.3z" style="-webkit-transform-origin:12.5px 15.15px 0;-moz-transform-origin:12.5px 15.15px 0;-ms-transform-origin:12.5px 15.15px 0;transform-origin:12.5px 15.15px 0;-webkit-animation:am-weather-moon 6s linear 0s infinite;-moz-animation:am-weather-moon 6s linear 0s infinite;-o-animation:am-weather-moon 6s linear 0s infinite;animation:am-weather-moon 6s linear 0s infinite" /><path fill="#DBDBDB" stroke="#fff" stroke-linejoin="round" stroke-width="1.5" d="M27 23.5c0-4.2-2.9-7.2-5.8-7.2-.8 0-1.2-.3-1.9 0-.3-3-3.4-5.3-6.3-5.3-3 0-6 2.7-6 6 0 .7.2 1.4.3 2h-.8c-3 0-5.5 2.7-5.5 6 0 3.2 2.4 6 5.3 6h14.2a7.5 7.5 0 0 0 6.5-7.5z" style="-webkit-animation:am-weather-cloud-2 3s ease-in-out 0s infinite;-moz-animation:am-weather-cloud-2 3s ease-in-out 0s infinite;-o-animation:am-weather-cloud-2 3s ease-in-out 0s infinite;animation:am-weather-cloud-2 3s ease-in-out 0s infinite" /></symbol><symbol fill="none" viewBox="0 0 33 32" id="03d"><defs><style>@keyframes am-weather-cloud-1{0%,to{-webkit-transform:translate(-5px,0);-ms-transform:translate(-5px,0);transform:translate(-5px,0)}50%{-webkit-transform:translate(5px,0);-ms-transform:translate(5px,0);transform:translate(5px,0)}}@-webkit-keyframes am-weather-cloud-1{0%,to{-webkit-transform:translate(-5px,0);-ms-transform:translate(-5px,0);transform:translate(-5px,0)}50%{-webkit-transform:translate(5px,0);-ms-transform:translate(5px,0);transform:translate(5px,0)}}@keyframes am-weather-cloud-2{0%,to{-webkit-transform:translate(0,0);-ms-transform:translate(0,0);transform:translate(0,0)}50%{-webkit-transform:translate(2px,0);-ms-transform:translate(2px,0);transform:translate(2px,0)}}@-webkit-keyframes am-weather-cloud-2{0%,to{-webkit-transform:translate(0,0);-ms-transform:translate(0,0);transform:translate(0,0)}50%{-webkit-transform:translate(2px,0);-ms-transform:translate(2px,0);transform:translate(2px,0)}}</style></defs><path fill="#DBDBDB" stroke="#fff" stroke-linejoin="round" stroke-width=".7" d="M26.8 13c0-3.3-2.4-6-5.4-6-.6 0-1.2.2-1.8.4-.2-2.4-2-4.4-4.3-4.4-2.4 0-4.4 2.2-4.4 4.8 0 .6.1 1.2.3 1.7l-.7-.1c-2.4 0-4.4 2.1-4.4 4.8 0 2.6 2 4.7 4.3 4.8h11.2a6 6 0 0 0 5.2-6z" style="-webkit-animation:am-weather-cloud-1 7s ease-in-out 0s infinite;-moz-animation:am-weather-cloud-1 7s ease-in-out 0s infinite;-o-animation:am-weather-cloud-1 7s ease-in-out 0s infinite;animation:am-weather-cloud-1 7s ease-in-out 0s infinite" /><path fill="#8B8B8B" stroke="#fff" stroke-linejoin="round" stroke-width="1.5" d="M32 23c0-4.2-3.4-7.6-7.5-7.6-1 0-1.8.2-2.6.4a6.2 6.2 0 0 0-6-5.8 6.2 6.2 0 0 0-6.2 6.3c0 .8.2 1.5.4 2.2l-1-.1A6.2 6.2 0 0 0 3 24.7C3 28 5.7 30.9 9 31h15.8a8 8 0 0 0 7.2-8z" style="-webkit-animation:am-weather-cloud-2 3s ease-in-out 0s infinite;-moz-animation:am-weather-cloud-2 3s ease-in-out 0s infinite;-o-animation:am-weather-cloud-2 3s ease-in-out 0s infinite;animation:am-weather-cloud-2 3s ease-in-out 0s infinite" /></symbol><symbol fill="none" viewBox="0 0 33 32" id="03n"><defs><style>@keyframes am-weather-cloud-1{0%,to{-webkit-transform:translate(-5px,0);-ms-transform:translate(-5px,0);transform:translate(-5px,0)}50%{-webkit-transform:translate(5px,0);-ms-transform:translate(5px,0);transform:translate(5px,0)}}@-webkit-keyframes am-weather-cloud-1{0%,to{-webkit-transform:translate(-5px,0);-ms-transform:translate(-5px,0);transform:translate(-5px,0)}50%{-webkit-transform:translate(5px,0);-ms-transform:translate(5px,0);transform:translate(5px,0)}}@keyframes am-weather-cloud-2{0%,to{-webkit-transform:translate(0,0);-ms-transform:translate(0,0);transform:translate(0,0)}50%{-webkit-transform:translate(2px,0);-ms-transform:translate(2px,0);transform:translate(2px,0)}}@-webkit-keyframes am-weather-cloud-2{0%,to{-webkit-transform:translate(0,0);-ms-transform:translate(0,0);transform:translate(0,0)}50%{-webkit-transform:translate(2px,0);-ms-transform:translate(2px,0);transform:translate(2px,0)}}</style></defs><path fill="#DBDBDB" stroke="#fff" stroke-linejoin="round" stroke-width=".7" d="M26.8 13c0-3.3-2.4-6-5.4-6-.6 0-1.2.2-1.8.4-.2-2.4-2-4.4-4.3-4.4-2.4 0-4.4 2.2-4.4 4.8 0 .6.1 1.2.3 1.7l-.7-.1c-2.4 0-4.4 2.1-4.4 4.8 0 2.6 2 4.7 4.3 4.8h11.2a6 6 0 0 0 5.2-6z" style="-webkit-animation:am-weather-cloud-1 7s ease-in-out 0s infinite;-moz-animation:am-weather-cloud-1 7s ease-in-out 0s infinite;-o-animation:am-weather-cloud-1 7s ease-in-out 0s infinite;animation:am-weather-cloud-1 7s ease-in-out 0s infinite" /><path fill="#8B8B8B" stroke="#fff" stroke-linejoin="round" stroke-width="1.5" d="M32 23c0-4.2-3.4-7.6-7.5-7.6-1 0-1.8.2-2.6.4a6.2 6.2 0 0 0-6-5.8 6.2 6.2 0 0 0-6.2 6.3c0 .8.2 1.5.4 2.2l-1-.1A6.2 6.2 0 0 0 3 24.7C3 28 5.7 30.9 9 31h15.8a8 8 0 0 0 7.2-8z" style="-webkit-animation:am-weather-cloud-2 3s ease-in-out 0s infinite;-moz-animation:am-weather-cloud-2 3s ease-in-out 0s infinite;-o-animation:am-weather-cloud-2 3s ease-in-out 0s infinite;animation:am-weather-cloud-2 3s ease-in-out 0s infinite" /></symbol><symbol fill="none" viewBox="0 0 33 32" id="04d"><defs><style>@keyframes am-weather-cloud-1{0%,to{-webkit-transform:translate(-5px,0);-ms-transform:translate(-5px,0);transform:translate(-5px,0)}50%{-webkit-transform:translate(5px,0);-ms-transform:translate(5px,0);transform:translate(5px,0)}}@-webkit-keyframes am-weather-cloud-1{0%,to{-webkit-transform:translate(-5px,0);-ms-transform:translate(-5px,0);transform:translate(-5px,0)}50%{-webkit-transform:translate(5px,0);-ms-transform:translate(5px,0);transform:translate(5px,0)}}@keyframes am-weather-cloud-2{0%,to{-webkit-transform:translate(0,0);-ms-transform:translate(0,0);transform:translate(0,0)}50%{-webkit-transform:translate(2px,0);-ms-transform:translate(2px,0);transform:translate(2px,0)}}@-webkit-keyframes am-weather-cloud-2{0%,to{-webkit-transform:translate(0,0);-ms-transform:translate(0,0);transform:translate(0,0)}50%{-webkit-transform:translate(2px,0);-ms-transform:translate(2px,0);transform:translate(2px,0)}}</style></defs><path fill="#DBDBDB" stroke="#fff" stroke-linejoin="round" stroke-width=".7" d="M26.8 13c0-3.3-2.4-6-5.4-6-.6 0-1.2.2-1.8.4-.2-2.4-2-4.4-4.3-4.4-2.4 0-4.4 2.2-4.4 4.8 0 .6.1 1.2.3 1.7l-.7-.1c-2.4 0-4.4 2.1-4.4 4.8 0 2.6 2 4.7 4.3 4.8h11.2a6 6 0 0 0 5.2-6z" style="-webkit-animation:am-weather-cloud-1 7s ease-in-out 0s infinite;-moz-animation:am-weather-cloud-1 7s ease-in-out 0s infinite;-o-animation:am-weather-cloud-1 7s ease-in-out 0s infinite;animation:am-weather-cloud-1 7s ease-in-out 0s infinite" /><path fill="#8B8B8B" stroke="#fff" stroke-linejoin="round" stroke-width="1.5" d="M32 23c0-4.2-3.4-7.6-7.5-7.6-1 0-1.8.2-2.6.4a6.2 6.2 0 0 0-6-5.8 6.2 6.2 0 0 0-6.2 6.3c0 .8.2 1.5.4 2.2l-1-.1A6.2 6.2 0 0 0 3 24.7C3 28 5.7 30.9 9 31h15.8a8 8 0 0 0 7.2-8z" style="-webkit-animation:am-weather-cloud-2 3s ease-in-out 0s infinite;-moz-animation:am-weather-cloud-2 3s ease-in-out 0s infinite;-o-animation:am-weather-cloud-2 3s ease-in-out 0s infinite;animation:am-weather-cloud-2 3s ease-in-out 0s infinite" /></symbol><symbol fill="none" viewBox="0 0 33 32" id="04n"><defs><style>@keyframes am-weather-cloud-1{0%,to{-webkit-transform:translate(-5px,0);-ms-transform:translate(-5px,0);transform:translate(-5px,0)}50%{-webkit-transform:translate(5px,0);-ms-transform:translate(5px,0);transform:translate(5px,0)}}@-webkit-keyframes am-weather-cloud-1{0%,to{-webkit-transform:translate(-5px,0);-ms-transform:translate(-5px,0);transform:translate(-5px,0)}50%{-webkit-transform:translate(5px,0);-ms-transform:translate(5px,0);transform:translate(5px,0)}}@keyframes am-weather-cloud-2{0%,to{-webkit-transform:translate(0,0);-ms-transform:translate(0,0);transform:translate(0,0)}50%{-webkit-transform:translate(2px,0);-ms-transform:translate(2px,0);transform:translate(2px,0)}}@-webkit-keyframes am-weather-cloud-2{0%,to{-webkit-transform:translate(0,0);-ms-transform:translate(0,0);transform:translate(0,0)}50%{-webkit-transform:translate(2px,0);-ms-transform:translate(2px,0);transform:translate(2px,0)}}</style></defs><path fill="#DBDBDB" stroke="#fff" stroke-linejoin="round" stroke-width=".7" d="M26.8 13c0-3.3-2.4-6-5.4-6-.6 0-1.2.2-1.8.4-.2-2.4-2-4.4-4.3-4.4-2.4 0-4.4 2.2-4.4 4.8 0 .6.1 1.2.3 1.7l-.7-.1c-2.4 0-4.4 2.1-4.4 4.8 0 2.6 2 4.7 4.3 4.8h11.2a6 6 0 0 0 5.2-6z" style="-webkit-animation:am-weather-cloud-1 7s ease-in-out 0s infinite;-moz-animation:am-weather-cloud-1 7s ease-in-out 0s infinite;-o-animation:am-weather-cloud-1 7s ease-in-out 0s infinite;animation:am-weather-cloud-1 7s ease-in-out 0s infinite" /><path fill="#8B8B8B" stroke="#fff" stroke-linejoin="round" stroke-width="1.5" d="M32 23c0-4.2-3.4-7.6-7.5-7.6-1 0-1.8.2-2.6.4a6.2 6.2 0 0 0-6-5.8 6.2 6.2 0 0 0-6.2 6.3c0 .8.2 1.5.4 2.2l-1-.1A6.2 6.2 0 0 0 3 24.7C3 28 5.7 30.9 9 31h15.8a8 8 0 0 0 7.2-8z" style="-webkit-animation:am-weather-cloud-2 3s ease-in-out 0s infinite;-moz-animation:am-weather-cloud-2 3s ease-in-out 0s infinite;-o-animation:am-weather-cloud-2 3s ease-in-out 0s infinite;animation:am-weather-cloud-2 3s ease-in-out 0s infinite" /></symbol><symbol fill="none" viewBox="0 0 32 32" id="09d"><defs><style>@-webkit-keyframes am-weather-rain{0%{stroke-dashoffset:0}to{stroke-dashoffset:-100}}@keyframes am-weather-rain{0%{stroke-dashoffset:0}to{stroke-dashoffset:-100}}</style></defs><path fill="#8B8B8B" stroke="#fff" stroke-linejoin="round" stroke-width="1.5" d="M29 12.9a7 7 0 0 0-9.4-6.6C19.3 3.4 17 1 14 1a5.7 5.7 0 0 0-5.4 7.7h-.9A5.7 5.7 0 0 0 7.6 20h14.7a7.4 7.4 0 0 0 6.7-7.2z" /><path stroke="#dbdbdb" stroke-dasharray="4,4" stroke-linecap="round" stroke-width="2" d="M0 0v8" style="-webkit-animation:am-weather-rain 8s linear 0s infinite;-moz-animation:am-weather-rain 8s linear 0s infinite;-o-animation:am-weather-rain 8s linear 0s infinite;animation:am-weather-rain 8s linear 0s infinite" transform="rotate(10 -139.09 74.865)" /><path stroke="#dbdbdb" stroke-dasharray="4,4" stroke-linecap="round" stroke-width="2" d="M0 0v8" style="-webkit-animation:am-weather-rain 8s linear .26s infinite;-moz-animation:am-weather-rain 8s linear .26s infinite;-o-animation:am-weather-rain 8s linear .26s infinite;animation:am-weather-rain 8s linear .26s infinite" transform="rotate(10 -129.66 98.725)" /><path stroke="#dbdbdb" stroke-dasharray="4,4" stroke-linecap="round" stroke-width="2" d="M0 0v8" style="-webkit-animation:am-weather-rain 8s linear .13s infinite;-moz-animation:am-weather-rain 8s linear .13s infinite;-o-animation:am-weather-rain 8s linear .13s infinite;animation:am-weather-rain 8s linear .13s infinite" transform="rotate(10 -137.376 121.085)" /></symbol><symbol fill="none" viewBox="0 0 32 32" id="09n"><defs><style>@-webkit-keyframes am-weather-rain{0%{stroke-dashoffset:0}to{stroke-dashoffset:-100}}@keyframes am-weather-rain{0%{stroke-dashoffset:0}to{stroke-dashoffset:-100}}</style></defs><path fill="#8B8B8B" stroke="#fff" stroke-linejoin="round" stroke-width="1.5" d="M29 12.9a7 7 0 0 0-9.4-6.6C19.3 3.4 17 1 14 1a5.7 5.7 0 0 0-5.4 7.7h-.9A5.7 5.7 0 0 0 7.6 20h14.7a7.4 7.4 0 0 0 6.7-7.2z" /><path stroke="#dbdbdb" stroke-dasharray="4,4" stroke-linecap="round" stroke-width="2" d="M0 0v8" style="-webkit-animation:am-weather-rain 8s linear 0s infinite;-moz-animation:am-weather-rain 8s linear 0s infinite;-o-animation:am-weather-rain 8s linear 0s infinite;animation:am-weather-rain 8s linear 0s infinite" transform="rotate(10 -139.09 74.865)" /><path stroke="#dbdbdb" stroke-dasharray="4,4" stroke-linecap="round" stroke-width="2" d="M0 0v8" style="-webkit-animation:am-weather-rain 8s linear .26s infinite;-moz-animation:am-weather-rain 8s linear .26s infinite;-o-animation:am-weather-rain 8s linear .26s infinite;animation:am-weather-rain 8s linear .26s infinite" transform="rotate(10 -129.66 98.725)" /><path stroke="#dbdbdb" stroke-dasharray="4,4" stroke-linecap="round" stroke-width="2" d="M0 0v8" style="-webkit-animation:am-weather-rain 8s linear .13s infinite;-moz-animation:am-weather-rain 8s linear .13s infinite;-o-animation:am-weather-rain 8s linear .13s infinite;animation:am-weather-rain 8s linear .13s infinite" transform="rotate(10 -137.376 121.085)" /></symbol><symbol fill="none" viewBox="0 0 32 32" id="10d"><defs><style>@-webkit-keyframes am-weather-sun{0%{-webkit-transform:rotate(0deg);-ms-transform:rotate(0deg);transform:rotate(0deg)}to{-webkit-transform:rotate(360deg);-ms-transform:rotate(360deg);transform:rotate(360deg)}}@keyframes am-weather-sun{0%{-webkit-transform:rotate(0deg);-ms-transform:rotate(0deg);transform:rotate(0deg)}to{-webkit-transform:rotate(360deg);-ms-transform:rotate(360deg);transform:rotate(360deg)}}@-webkit-keyframes am-weather-sun-shiny{0%,to{stroke-dasharray:3px 10px;stroke-dashoffset:0}50%{stroke-dasharray:.1px 10px;stroke-dashoffset:-1px}}@keyframes am-weather-sun-shiny{0%,to{stroke-dasharray:3px 10px;stroke-dashoffset:0}50%{stroke-dasharray:.1px 10px;stroke-dashoffset:-1px}}@keyframes am-weather-cloud-2{0%,to{-webkit-transform:translate(0,2px);-ms-transform:translate(0,2px);transform:translate(0,2px)}50%{-webkit-transform:translate(2px,2px);-ms-transform:translate(2px,2px);transform:translate(2px,2px)}}@-webkit-keyframes am-weather-cloud-2{0%,to{-webkit-transform:translate(0,2px);-ms-transform:translate(0,2px);transform:translate(0,2px)}50%{-webkit-transform:translate(2px,2px);-ms-transform:translate(2px,2px);transform:translate(2px,2px)}}@-webkit-keyframes am-weather-rain{0%{stroke-dashoffset:0}to{stroke-dashoffset:-100}}@keyframes am-weather-rain{0%{stroke-dashoffset:0}to{stroke-dashoffset:-100}}#10d .am-weather-sun-shiny line{-webkit-animation:am-weather-sun-shiny 2s linear 0s infinite;-moz-animation:am-weather-sun-shiny 2s linear 0s infinite;-o-animation:am-weather-sun-shiny 2s linear 0s infinite;animation:am-weather-sun-shiny 2s linear 0s infinite}</style></defs><g transform="translate(13 15)"><g class="am-weather-sun-shiny" style="-webkit-animation:am-weather-sun 9s ease-in-out 0s infinite;-moz-animation:am-weather-sun 9s ease-in-out 0s infinite;-o-animation:am-weather-sun 9s ease-in-out 0s infinite;animation:am-weather-sun 9s ease-in-out 0s infinite"><path stroke="#FFC107" stroke-linecap="round" stroke-width="2" d="M0 9v3M-6.364 6.364l-2.121 2.121M-9 0h-3M-6.364-6.364l-2.121-2.121M0-9v-3M6.364-6.364l2.121-2.121M9 0h3M6.364 6.364l2.121 2.121" /></g><circle r="5" fill="#FFC107" stroke="#FFC107" stroke-width="2" /></g><path fill="#DBDBDB" stroke="#fff" stroke-linejoin="round" stroke-width="1.5" d="M29 18c0-3.3-2.4-5.8-4.9-5.8-.7 0-1-.2-1.6 0-.2-2.4-2.9-4.2-5.3-4.2-2.6 0-5.1 2.2-5.1 4.8 0 .6.1 1.2.3 1.7l-.7-.1A4.7 4.7 0 0 0 7 19.2c0 2.6 2 4.7 4.5 4.8h12c3-.4 5.5-2.9 5.5-6z" style="-webkit-animation:am-weather-cloud-2 3s ease-in-out 0s infinite;-moz-animation:am-weather-cloud-2 3s ease-in-out 0s infinite;-o-animation:am-weather-cloud-2 3s ease-in-out 0s infinite;animation:am-weather-cloud-2 3s ease-in-out 0s infinite" /><path stroke="#dbdbdb" stroke-dasharray="4,7" stroke-linecap="round" stroke-width="2" d="M0 0v8" style="-webkit-animation:am-weather-rain 8s linear 0s infinite;-moz-animation:am-weather-rain 8s linear 0s infinite;-o-animation:am-weather-rain 8s linear 0s infinite;animation:am-weather-rain 8s linear 0s infinite" transform="rotate(10 -157.95 99.725)" /><path stroke="#dbdbdb" stroke-dasharray="4,7" stroke-linecap="round" stroke-width="2" d="M0 0v8" style="-webkit-animation:am-weather-rain 8s linear .26s infinite;-moz-animation:am-weather-rain 8s linear .26s infinite;-o-animation:am-weather-rain 8s linear .26s infinite;animation:am-weather-rain 8s linear .26s infinite" transform="rotate(10 -149.52 135.016)" /></symbol><symbol fill="none" viewBox="0 0 32 32" id="10n"><defs><style>@keyframes am-weather-moon{0%,to{-webkit-transform:rotate(0deg);-moz-transform:rotate(0deg);-ms-transform:rotate(0deg);transform:rotate(0deg)}50%{-webkit-transform:rotate(15deg);-moz-transform:rotate(15deg);-ms-transform:rotate(15deg);transform:rotate(15deg)}}@keyframes am-weather-moon-star-2{0%{opacity:0}to{opacity:1}}@keyframes am-weather-cloud-2{0%,to{-webkit-transform:translate(0,2px);-ms-transform:translate(0,2px);transform:translate(0,2px)}50%{-webkit-transform:translate(2px,2px);-ms-transform:translate(2px,2px);transform:translate(2px,2px)}}@-webkit-keyframes am-weather-cloud-2{0%,to{-webkit-transform:translate(0,2px);-ms-transform:translate(0,2px);transform:translate(0,2px)}50%{-webkit-transform:translate(2px,2px);-ms-transform:translate(2px,2px);transform:translate(2px,2px)}}@-webkit-keyframes am-weather-rain{0%{stroke-dashoffset:0}to{stroke-dashoffset:-100}}@keyframes am-weather-rain{0%{stroke-dashoffset:0}to{stroke-dashoffset:-100}}</style></defs><path fill="#FFC107" stroke-miterlimit="10" d="M3.3 1.5 4 2.7l1.2.6L4 4l-.7 1.2L2.7 4l-1.2-.7 1.2-.6z" style="-webkit-animation:am-weather-moon-star-2 4s linear 0s infinite;-moz-animation:am-weather-moon-star-2 4s linear 0s infinite;-o-animation:am-weather-moon-star-2 4s linear 0s infinite;animation:am-weather-moon-star-2 4s linear 0s infinite" transform="translate(21 3)" /><path fill="#FFC107" stroke="#FFC107" stroke-linejoin="round" stroke-width="1.6" d="M23 11.7c0-3 1.7-5.7 4.2-7.2-1.3-.8-2.7-1-4.2-1a8.4 8.4 0 0 0-8.5 8.2c0 4.6 3.8 8.3 8.5 8.3a9 9 0 0 0 4.2-1 8.3 8.3 0 0 1-4.2-7.3z" style="-webkit-transform-origin:12.5px 15.15px 0;-moz-transform-origin:12.5px 15.15px 0;-ms-transform-origin:12.5px 15.15px 0;transform-origin:12.5px 15.15px 0;-webkit-animation:am-weather-moon 6s linear 0s infinite;-moz-animation:am-weather-moon 6s linear 0s infinite;-o-animation:am-weather-moon 6s linear 0s infinite;animation:am-weather-moon 6s linear 0s infinite" transform="translate(-13 -3)" /><path fill="#DBDBDB" stroke="#fff" stroke-linejoin="round" stroke-width="1.5" d="M29 18c0-3.3-2.4-5.8-4.9-5.8-.7 0-1-.2-1.6 0-.2-2.4-2.9-4.2-5.3-4.2-2.6 0-5.1 2.2-5.1 4.8 0 .6.1 1.2.3 1.7l-.7-.1A4.7 4.7 0 0 0 7 19.2c0 2.6 2 4.7 4.5 4.8h12c3-.4 5.5-2.9 5.5-6z" style="-webkit-animation:am-weather-cloud-2 3s ease-in-out 0s infinite;-moz-animation:am-weather-cloud-2 3s ease-in-out 0s infinite;-o-animation:am-weather-cloud-2 3s ease-in-out 0s infinite;animation:am-weather-cloud-2 3s ease-in-out 0s infinite" /><path stroke="#dbdbdb" stroke-dasharray="4,7" stroke-linecap="round" stroke-width="2" d="M0 0v8" style="-webkit-animation:am-weather-rain 8s linear 0s infinite;-moz-animation:am-weather-rain 8s linear 0s infinite;-o-animation:am-weather-rain 8s linear 0s infinite;animation:am-weather-rain 8s linear 0s infinite" transform="rotate(10 -157.95 99.725)" /><path stroke="#dbdbdb" stroke-dasharray="4,7" stroke-linecap="round" stroke-width="2" d="M0 0v8" style="-webkit-animation:am-weather-rain 8s linear .26s infinite;-moz-animation:am-weather-rain 8s linear .26s infinite;-o-animation:am-weather-rain 8s linear .26s infinite;animation:am-weather-rain 8s linear .26s infinite" transform="rotate(10 -149.52 135.016)" /></symbol><symbol fill="none" viewBox="0 0 32 32" id="11d"><defs><style>@keyframes am-weather-cloud-1{0%,to{-webkit-transform:translate(0,0);-ms-transform:translate(0,0);transform:translate(0,0)}50%{-webkit-transform:translate(3px,0);-ms-transform:translate(3px,0);transform:translate(3px,0)}}@-webkit-keyframes am-weather-cloud-1{0%,to{-webkit-transform:translate(0,0);-ms-transform:translate(0,0);transform:translate(0,0)}50%{-webkit-transform:translate(3px,0);-ms-transform:translate(3px,0);transform:translate(3px,0)}}@-webkit-keyframes am-weather-stroke{0%,12%,16%,20%,24%,28%,4%,8%,to{-webkit-transform:translate(0,0);-ms-transform:translate(0,0);transform:translate(0,0)}10%,14%,18%,2%{-webkit-transform:translate(.3px,0);-ms-transform:translate(.3px,0);transform:translate(.3px,0)}6%{-webkit-transform:translate(.5px,.4px);-ms-transform:translate(.5px,.4px);transform:translate(.5px,.4px)}22%{-webkit-transform:translate(1px,0);-ms-transform:translate(1px,0);transform:translate(1px,0)}26%{-webkit-transform:translate(-1px,0);-ms-transform:translate(-1px,0);transform:translate(-1px,0)}40%{fill:#ffc107;-webkit-transform:translate(0,0);-ms-transform:translate(0,0);transform:translate(0,0)}65%{fill:#fff;-webkit-transform:translate(-1px,5px);-ms-transform:translate(-1px,5px);transform:translate(-1px,5px)}61%{fill:#ffc107}}@keyframes am-weather-stroke{0%,12%,16%,20%,24%,28%,4%,8%,to{-webkit-transform:translate(0,0);-ms-transform:translate(0,0);transform:translate(0,0)}10%,14%,18%,2%{-webkit-transform:translate(.3px,0);-ms-transform:translate(.3px,0);transform:translate(.3px,0)}6%{-webkit-transform:translate(.5px,.4px);-ms-transform:translate(.5px,.4px);transform:translate(.5px,.4px)}22%{-webkit-transform:translate(1px,0);-ms-transform:translate(1px,0);transform:translate(1px,0)}26%{-webkit-transform:translate(-1px,0);-ms-transform:translate(-1px,0);transform:translate(-1px,0)}40%{fill:#ffc107;-webkit-transform:translate(0,0);-ms-transform:translate(0,0);transform:translate(0,0)}65%{fill:#fff;-webkit-transform:translate(-1px,5px);-ms-transform:translate(-1px,5px);transform:translate(-1px,5px)}61%{fill:#ffc107}}</style></defs><path fill="#DBDBDB" stroke="#fff" stroke-linejoin="round" stroke-width=".7" d="M19 9.1c0-2.7-2-4.8-4.7-4.8l-1.6.3C12.6 2.6 11 1 9 1a4 4 0 0 0-3.6 5.3l-.6-.1c-2 0-3.8 1.7-3.8 3.9A4 4 0 0 0 4.7 14h9.8c1.2-.2 2.4-.7 3.2-1.6.9-1 1.3-2 1.3-3.3z" style="-webkit-animation:am-weather-cloud-1 7s ease-in-out 0s infinite;-moz-animation:am-weather-cloud-1 7s ease-in-out 0s infinite;-o-animation:am-weather-cloud-1 7s ease-in-out 0s infinite;animation:am-weather-cloud-1 7s ease-in-out 0s infinite" /><path fill="#8B8B8B" stroke="#fff" stroke-linejoin="round" stroke-width="1.5" d="M30 13.5a6 6 0 0 0-8-5.8 5 5 0 0 0-1.5-3.3c-.9-.9-2-1.4-3.3-1.4a4.8 4.8 0 0 0-3.5 1.5 5 5 0 0 0-1.4 3.6l.3 1.8-.8-.1a4.8 4.8 0 0 0-3.4 1.5A5 5 0 0 0 7 15c0 2.7 2.1 5 4.8 5.1h12.5c1.6-.2 3-1 4-2.1 1.1-1.2 1.7-2.8 1.7-4.4z" class="am-weather-cloud-2" /><path fill="#FFC107" stroke="#fff" stroke-width="1.5" d="M15 15h6l-4 6.6h3.8L12.4 31l3.2-7H12z" style="-webkit-animation:am-weather-stroke 1.11s linear 0s infinite;animation:am-weather-stroke 1.11s linear 0s infinite" transform="matrix(1.1 0 0 1.1 0 -3)" /></symbol><symbol fill="none" viewBox="0 0 32 32" id="11n"><defs><style>@keyframes am-weather-cloud-1{0%,to{-webkit-transform:translate(0,0);-ms-transform:translate(0,0);transform:translate(0,0)}50%{-webkit-transform:translate(3px,0);-ms-transform:translate(3px,0);transform:translate(3px,0)}}@-webkit-keyframes am-weather-cloud-1{0%,to{-webkit-transform:translate(0,0);-ms-transform:translate(0,0);transform:translate(0,0)}50%{-webkit-transform:translate(3px,0);-ms-transform:translate(3px,0);transform:translate(3px,0)}}@keyframes am-weather-stroke{0%,12%,16%,20%,24%,28%,4%,8%,to{-webkit-transform:translate(0,0);-moz-transform:translate(0,0);-ms-transform:translate(0,0);transform:translate(0,0)}10%,14%,18%,2%{-webkit-transform:translate(.3px,0);-moz-transform:translate(.3px,0);-ms-transform:translate(.3px,0);transform:translate(.3px,0)}6%{-webkit-transform:translate(.5px,.4px);-moz-transform:translate(.5px,.4px);-ms-transform:translate(.5px,.4px);transform:translate(.5px,.4px)}22%{-webkit-transform:translate(1px,0);-moz-transform:translate(1px,0);-ms-transform:translate(1px,0);transform:translate(1px,0)}26%{-webkit-transform:translate(-1px,0);-moz-transform:translate(-1px,0);-ms-transform:translate(-1px,0);transform:translate(-1px,0)}40%{fill:#ffc107;-webkit-transform:translate(0,0);-moz-transform:translate(0,0);-ms-transform:translate(0,0);transform:translate(0,0)}65%{fill:#fff;-webkit-transform:translate(-1px,5px);-moz-transform:translate(-1px,5px);-ms-transform:translate(-1px,5px);transform:translate(-1px,5px)}61%{fill:#ffc107}}</style></defs><path fill="#DBDBDB" stroke="#fff" stroke-linejoin="round" stroke-width=".7" d="M19 9.1c0-2.7-2-4.8-4.7-4.8l-1.6.3C12.6 2.6 11 1 9 1a4 4 0 0 0-3.6 5.3l-.6-.1c-2 0-3.8 1.7-3.8 3.9A4 4 0 0 0 4.7 14h9.8c1.2-.2 2.4-.7 3.2-1.6.9-1 1.3-2 1.3-3.3z" style="-webkit-animation:am-weather-cloud-1 7s ease-in-out 0s infinite;-moz-animation:am-weather-cloud-1 7s ease-in-out 0s infinite;-o-animation:am-weather-cloud-1 7s ease-in-out 0s infinite;animation:am-weather-cloud-1 7s ease-in-out 0s infinite" /><path fill="#8B8B8B" stroke="#fff" stroke-linejoin="round" stroke-width="1.5" d="M30 13.5a6 6 0 0 0-8-5.8 5 5 0 0 0-1.5-3.3c-.9-.9-2-1.4-3.3-1.4a4.8 4.8 0 0 0-3.5 1.5 5 5 0 0 0-1.4 3.6l.3 1.8-.8-.1a4.8 4.8 0 0 0-3.4 1.5A5 5 0 0 0 7 15c0 2.7 2.1 5 4.8 5.1h12.5c1.6-.2 3-1 4-2.1 1.1-1.2 1.7-2.8 1.7-4.4z" class="am-weather-cloud-2" /><path fill="#FFC107" stroke="#fff" stroke-width="1.5" d="M15 15h6l-4 6.6h3.8L12.4 31l3.2-7H12z" style="-webkit-animation:am-weather-stroke 1.11s linear 0s infinite;-moz-animation:am-weather-stroke 1.11s linear 0s infinite;-o-animation:am-weather-stroke 1.11s linear 0s infinite;animation:am-weather-stroke 1.11s linear 0s infinite" transform="matrix(1.1 0 0 1.1 0 -3)" /></symbol><symbol fill="none" viewBox="0 0 32 32" id="13d"><defs><style>@keyframes am-weather-cloud-1{0%,to{-webkit-transform:translate(0,0);-ms-transform:translate(0,0);transform:translate(0,0)}50%{-webkit-transform:translate(3px,0);-ms-transform:translate(3px,0);transform:translate(3px,0)}}@-webkit-keyframes am-weather-cloud-1{0%,to{-webkit-transform:translate(0,0);-ms-transform:translate(0,0);transform:translate(0,0)}50%{-webkit-transform:translate(3px,0);-ms-transform:translate(3px,0);transform:translate(3px,0)}}@keyframes am-weather-snow{0%{opacity:1;-webkit-transform:translateX(0) translateY(0);-moz-transform:translateX(0) translateY(0);-ms-transform:translateX(0) translateY(0);transform:translateX(0) translateY(0)}33.33%{-webkit-transform:translateX(-1.2px) translateY(2px);-moz-transform:translateX(-1.2px) translateY(2px);-ms-transform:translateX(-1.2px) translateY(2px);transform:translateX(-1.2px) translateY(2px)}66.66%{-webkit-transform:translateX(1.4px) translateY(4px);-moz-transform:translateX(1.4px) translateY(4px);-ms-transform:translateX(1.4px) translateY(4px);transform:translateX(1.4px) translateY(4px);opacity:1}to{-webkit-transform:translateX(-1.6px) translateY(6px);-moz-transform:translateX(-1.6px) translateY(6px);-ms-transform:translateX(-1.6px) translateY(6px);transform:translateX(-1.6px) translateY(6px);opacity:0}}</style></defs><path fill="#DBDBDB" stroke="#fff" stroke-linejoin="round" stroke-width=".7" d="M19 9.1c0-2.7-2-4.8-4.7-4.8l-1.6.3C12.6 2.6 11 1 9 1a4 4 0 0 0-3.6 5.3l-.6-.1c-2 0-3.8 1.7-3.8 3.9A4 4 0 0 0 4.7 14h9.8c1.2-.2 2.4-.7 3.2-1.6.9-1 1.3-2 1.3-3.3z" style="-webkit-animation:am-weather-cloud-1 7s ease-in-out 0s infinite;-moz-animation:am-weather-cloud-1 7s ease-in-out 0s infinite;-o-animation:am-weather-cloud-1 7s ease-in-out 0s infinite;animation:am-weather-cloud-1 7s ease-in-out 0s infinite" /><path fill="#8B8B8B" stroke="#fff" stroke-linejoin="round" stroke-width="1.5" d="M30 13.5a6 6 0 0 0-8-5.8 5 5 0 0 0-1.5-3.3c-.9-.9-2-1.4-3.3-1.4a4.8 4.8 0 0 0-3.5 1.5 5 5 0 0 0-1.4 3.6l.3 1.8-.8-.1a4.8 4.8 0 0 0-3.4 1.5A5 5 0 0 0 7 15c0 2.7 2.1 5 4.8 5.1h12.5c1.6-.2 3-1 4-2.1 1.1-1.2 1.7-2.8 1.7-4.4z" class="am-weather-cloud-2" /><g style="-webkit-animation:am-weather-snow 2s linear 0s infinite;-moz-animation:am-weather-snow 2s linear 0s infinite;-o-animation:am-weather-snow 2s linear 0s infinite;animation:am-weather-snow 2s linear 0s infinite"><path stroke="#8B8B8B" stroke-linecap="round" stroke-width="1.2" d="M11.9 22 9 26.5" /><path stroke="#8B8B8B" stroke-linecap="round" d="m9.1 22 2.8 4.5m1.1-2.2H8" /></g><g style="-webkit-animation:am-weather-snow 2s linear .5s infinite;-moz-animation:am-weather-snow 2s linear .5s infinite;-o-animation:am-weather-snow 2s linear .5s infinite;animation:am-weather-snow 2s linear .5s infinite"><path stroke="#8B8B8B" stroke-linecap="round" stroke-width="1.2" d="M20.9 25 18 29.5" /><path stroke="#8B8B8B" stroke-linecap="round" d="m18.1 25 2.8 4.5m1.1-2.2h-5" /></g></symbol><symbol fill="none" viewBox="0 0 32 32" id="13n"><defs><style>@keyframes am-weather-cloud-1{0%,to{-webkit-transform:translate(0,0);-ms-transform:translate(0,0);transform:translate(0,0)}50%{-webkit-transform:translate(3px,0);-ms-transform:translate(3px,0);transform:translate(3px,0)}}@-webkit-keyframes am-weather-cloud-1{0%,to{-webkit-transform:translate(0,0);-ms-transform:translate(0,0);transform:translate(0,0)}50%{-webkit-transform:translate(3px,0);-ms-transform:translate(3px,0);transform:translate(3px,0)}}@keyframes am-weather-snow{0%{opacity:1;-webkit-transform:translateX(0) translateY(0);-moz-transform:translateX(0) translateY(0);-ms-transform:translateX(0) translateY(0);transform:translateX(0) translateY(0)}33.33%{-webkit-transform:translateX(-1.2px) translateY(2px);-moz-transform:translateX(-1.2px) translateY(2px);-ms-transform:translateX(-1.2px) translateY(2px);transform:translateX(-1.2px) translateY(2px)}66.66%{-webkit-transform:translateX(1.4px) translateY(4px);-moz-transform:translateX(1.4px) translateY(4px);-ms-transform:translateX(1.4px) translateY(4px);transform:translateX(1.4px) translateY(4px);opacity:1}to{-webkit-transform:translateX(-1.6px) translateY(6px);-moz-transform:translateX(-1.6px) translateY(6px);-ms-transform:translateX(-1.6px) translateY(6px);transform:translateX(-1.6px) translateY(6px);opacity:0}}</style></defs><path fill="#DBDBDB" stroke="#fff" stroke-linejoin="round" stroke-width=".7" d="M19 9.1c0-2.7-2-4.8-4.7-4.8l-1.6.3C12.6 2.6 11 1 9 1a4 4 0 0 0-3.6 5.3l-.6-.1c-2 0-3.8 1.7-3.8 3.9A4 4 0 0 0 4.7 14h9.8c1.2-.2 2.4-.7 3.2-1.6.9-1 1.3-2 1.3-3.3z" style="-webkit-animation:am-weather-cloud-1 7s ease-in-out 0s infinite;-moz-animation:am-weather-cloud-1 7s ease-in-out 0s infinite;-o-animation:am-weather-cloud-1 7s ease-in-out 0s infinite;animation:am-weather-cloud-1 7s ease-in-out 0s infinite" /><path fill="#8B8B8B" stroke="#fff" stroke-linejoin="round" stroke-width="1.5" d="M30 13.5a6 6 0 0 0-8-5.8 5 5 0 0 0-1.5-3.3c-.9-.9-2-1.4-3.3-1.4a4.8 4.8 0 0 0-3.5 1.5 5 5 0 0 0-1.4 3.6l.3 1.8-.8-.1a4.8 4.8 0 0 0-3.4 1.5A5 5 0 0 0 7 15c0 2.7 2.1 5 4.8 5.1h12.5c1.6-.2 3-1 4-2.1 1.1-1.2 1.7-2.8 1.7-4.4z" class="am-weather-cloud-2" /><g style="-webkit-animation:am-weather-snow 2s linear 0s infinite;-moz-animation:am-weather-snow 2s linear 0s infinite;-o-animation:am-weather-snow 2s linear 0s infinite;animation:am-weather-snow 2s linear 0s infinite"><path stroke="#8B8B8B" stroke-linecap="round" stroke-width="1.2" d="M11.9 22 9 26.5" /><path stroke="#8B8B8B" stroke-linecap="round" d="m9.1 22 2.8 4.5m1.1-2.2H8" /></g><g style="-webkit-animation:am-weather-snow 2s linear .5s infinite;-moz-animation:am-weather-snow 2s linear .5s infinite;-o-animation:am-weather-snow 2s linear .5s infinite;animation:am-weather-snow 2s linear .5s infinite"><path stroke="#8B8B8B" stroke-linecap="round" stroke-width="1.2" d="M20.9 25 18 29.5" /><path stroke="#8B8B8B" stroke-linecap="round" d="m18.1 25 2.8 4.5m1.1-2.2h-5" /></g></symbol><symbol fill="none" viewBox="0 0 33 32" id="50d"><defs><style>@keyframes am-weather-cloud-1{0%,to{-webkit-transform:translate(-5px,0);-ms-transform:translate(-5px,0);transform:translate(-5px,0)}50%{-webkit-transform:translate(5px,0);-ms-transform:translate(5px,0);transform:translate(5px,0)}}@-webkit-keyframes am-weather-cloud-1{0%,to{-webkit-transform:translate(-5px,0);-ms-transform:translate(-5px,0);transform:translate(-5px,0)}50%{-webkit-transform:translate(5px,0);-ms-transform:translate(5px,0);transform:translate(5px,0)}}@keyframes am-weather-cloud-2{0%,to{-webkit-transform:translate(0,0);-ms-transform:translate(0,0);transform:translate(0,0)}50%{-webkit-transform:translate(2px,0);-ms-transform:translate(2px,0);transform:translate(2px,0)}}@-webkit-keyframes am-weather-cloud-2{0%,to{-webkit-transform:translate(0,0);-ms-transform:translate(0,0);transform:translate(0,0)}50%{-webkit-transform:translate(2px,0);-ms-transform:translate(2px,0);transform:translate(2px,0)}}</style></defs><path fill="#DBDBDB" stroke="#fff" stroke-linejoin="round" stroke-width=".7" d="M26.8 13c0-3.3-2.4-6-5.4-6-.6 0-1.2.2-1.8.4-.2-2.4-2-4.4-4.3-4.4-2.4 0-4.4 2.2-4.4 4.8 0 .6.1 1.2.3 1.7l-.7-.1c-2.4 0-4.4 2.1-4.4 4.8 0 2.6 2 4.7 4.3 4.8h11.2a6 6 0 0 0 5.2-6z" style="-webkit-animation:am-weather-cloud-1 7s ease-in-out 0s infinite;-moz-animation:am-weather-cloud-1 7s ease-in-out 0s infinite;-o-animation:am-weather-cloud-1 7s ease-in-out 0s infinite;animation:am-weather-cloud-1 7s ease-in-out 0s infinite" /><path fill="#8B8B8B" stroke="#fff" stroke-linejoin="round" stroke-width="1.5" d="M32 23c0-4.2-3.4-7.6-7.5-7.6-1 0-1.8.2-2.6.4a6.2 6.2 0 0 0-6-5.8 6.2 6.2 0 0 0-6.2 6.3c0 .8.2 1.5.4 2.2l-1-.1A6.2 6.2 0 0 0 3 24.7C3 28 5.7 30.9 9 31h15.8a8 8 0 0 0 7.2-8z" style="-webkit-animation:am-weather-cloud-2 3s ease-in-out 0s infinite;-moz-animation:am-weather-cloud-2 3s ease-in-out 0s infinite;-o-animation:am-weather-cloud-2 3s ease-in-out 0s infinite;animation:am-weather-cloud-2 3s ease-in-out 0s infinite" /></symbol><symbol fill="none" viewBox="0 0 33 32" id="50n"><defs><style>@keyframes am-weather-cloud-1{0%,to{-webkit-transform:translate(-5px,0);-ms-transform:translate(-5px,0);transform:translate(-5px,0)}50%{-webkit-transform:translate(5px,0);-ms-transform:translate(5px,0);transform:translate(5px,0)}}@-webkit-keyframes am-weather-cloud-1{0%,to{-webkit-transform:translate(-5px,0);-ms-transform:translate(-5px,0);transform:translate(-5px,0)}50%{-webkit-transform:translate(5px,0);-ms-transform:translate(5px,0);transform:translate(5px,0)}}@keyframes am-weather-cloud-2{0%,to{-webkit-transform:translate(0,0);-ms-transform:translate(0,0);transform:translate(0,0)}50%{-webkit-transform:translate(2px,0);-ms-transform:translate(2px,0);transform:translate(2px,0)}}@-webkit-keyframes am-weather-cloud-2{0%,to{-webkit-transform:translate(0,0);-ms-transform:translate(0,0);transform:translate(0,0)}50%{-webkit-transform:translate(2px,0);-ms-transform:translate(2px,0);transform:translate(2px,0)}}</style></defs><path fill="#DBDBDB" stroke="#fff" stroke-linejoin="round" stroke-width=".7" d="M26.8 13c0-3.3-2.4-6-5.4-6-.6 0-1.2.2-1.8.4-.2-2.4-2-4.4-4.3-4.4-2.4 0-4.4 2.2-4.4 4.8 0 .6.1 1.2.3 1.7l-.7-.1c-2.4 0-4.4 2.1-4.4 4.8 0 2.6 2 4.7 4.3 4.8h11.2a6 6 0 0 0 5.2-6z" style="-webkit-animation:am-weather-cloud-1 7s ease-in-out 0s infinite;-moz-animation:am-weather-cloud-1 7s ease-in-out 0s infinite;-o-animation:am-weather-cloud-1 7s ease-in-out 0s infinite;animation:am-weather-cloud-1 7s ease-in-out 0s infinite" /><path fill="#8B8B8B" stroke="#fff" stroke-linejoin="round" stroke-width="1.5" d="M32 23c0-4.2-3.4-7.6-7.5-7.6-1 0-1.8.2-2.6.4a6.2 6.2 0 0 0-6-5.8 6.2 6.2 0 0 0-6.2 6.3c0 .8.2 1.5.4 2.2l-1-.1A6.2 6.2 0 0 0 3 24.7C3 28 5.7 30.9 9 31h15.8a8 8 0 0 0 7.2-8z" style="-webkit-animation:am-weather-cloud-2 3s ease-in-out 0s infinite;-moz-animation:am-weather-cloud-2 3s ease-in-out 0s infinite;-o-animation:am-weather-cloud-2 3s ease-in-out 0s infinite;animation:am-weather-cloud-2 3s ease-in-out 0s infinite" /></symbol></defs><use id="01d-usage" xlink:href="#01d" class="sprite-symbol-usage" /><use id="01n-usage" xlink:href="#01n" class="sprite-symbol-usage" /><use id="02d-usage" xlink:href="#02d" class="sprite-symbol-usage" /><use id="02n-usage" xlink:href="#02n" class="sprite-symbol-usage" /><use id="03d-usage" xlink:href="#03d" class="sprite-symbol-usage" /><use id="03n-usage" xlink:href="#03n" class="sprite-symbol-usage" /><use id="04d-usage" xlink:href="#04d" class="sprite-symbol-usage" /><use id="04n-usage" xlink:href="#04n" class="sprite-symbol-usage" /><use id="09d-usage" xlink:href="#09d" class="sprite-symbol-usage" /><use id="09n-usage" xlink:href="#09n" class="sprite-symbol-usage" /><use id="10d-usage" xlink:href="#10d" class="sprite-symbol-usage" /><use id="10n-usage" xlink:href="#10n" class="sprite-symbol-usage" /><use id="11d-usage" xlink:href="#11d" class="sprite-symbol-usage" /><use id="11n-usage" xlink:href="#11n" class="sprite-symbol-usage" /><use id="13d-usage" xlink:href="#13d" class="sprite-symbol-usage" /><use id="13n-usage" xlink:href="#13n" class="sprite-symbol-usage" /><use id="50d-usage" xlink:href="#50d" class="sprite-symbol-usage" /><use id="50n-usage" xlink:href="#50n" class="sprite-symbol-usage" /></svg>